<?xml version="1.0" encoding="utf-8"?>
<!-- Generator: Adobe Illustrator 26.0.2, SVG Export Plug-In . SVG Version: 6.00 Build 0)  -->
<svg version="1.1" id="Capa_1" xmlns="http://www.w3.org/2000/svg" xmlns:xlink="http://www.w3.org/1999/xlink" x="0px" y="0px"
	 width="905px" height="211px" viewBox="0 0 905 211" style="enable-background:new 0 0 905 211;" xml:space="preserve">
<style type="text/css">
	.st0{fill:#1C4CDF;}
	.st1{fill-rule:evenodd;clip-rule:evenodd;fill:#FD1A30;}
</style>
<path class="st0" d="M388.6,124.6L388.6,124.6L388.6,124.6L388.6,124.6z"/>
<path class="st0" d="M391.7,127.7L391.7,127.7z"/>
<path class="st0" d="M388.6,124.6L388.6,124.6L388.6,124.6L388.6,124.6z"/>
<path class="st0" d="M391.7,127.7L391.7,127.7z"/>
<path class="st0" d="M388.6,124.6L388.6,124.6L388.6,124.6z"/>
<path class="st0" d="M391.7,127.7L391.7,127.7z"/>
<path class="st0" d="M388.6,124.6L388.6,124.6L388.6,124.6z"/>
<path class="st0" d="M391.7,127.7L391.7,127.7z"/>
<path class="st0" d="M388.6,124.6L388.6,124.6L388.6,124.6z"/>
<path class="st0" d="M391.7,127.7L391.7,127.7z"/>
<path class="st0" d="M388.6,124.6L388.6,124.6L388.6,124.6z"/>
<path class="st0" d="M391.7,127.7L391.7,127.7z"/>
<path class="st0" d="M189.6,124.6L189.6,124.6z"/>
<path class="st0" d="M192.7,127.7L192.7,127.7z"/>
<path class="st0" d="M189.6,124.6L189.6,124.6z"/>
<path class="st0" d="M192.7,127.7L192.7,127.7z"/>
<path class="st1" d="M294.3,46.7c0,14.2,11.6,25.7,25.8,25.7c14.2,0,25.7-11.5,25.7-25.8c0-14.2-11.5-25.7-25.7-25.7
	c-14.2-0.1-25.7,11.4-25.7,25.5C294.3,46.6,294.3,46.6,294.3,46.7"/>
<path class="st0" d="M126.1,24.2c3.4,0.9,5.3,2.3,5.3,6.2v18.4c0.2,1.7-0.9,3.2-2.6,3.4c-0.3,0-0.6,0-0.9,0H80.8
	c-31.7,0-37.3,13.8-37.3,58.7s5.5,58.8,37.3,58.8H128c1.7-0.2,3.2,0.9,3.4,2.6c0,0.3,0,0.6,0,0.9v18.6c0,3.7-1.8,5.1-5.3,6
	c-11.2,2.3-25.1,3.4-45.3,3.4C22.2,201.3,7,180.6,7,110.9s15.2-90.1,73.8-90.1C101.1,20.8,114.9,22.1,126.1,24.2z"/>
<path class="st0" d="M278.6,22.1c2.3,0,3.7,1.1,3.7,3.4v24.7c0,2.3-1.4,3.4-3.7,3.4h-48.1v142.9c0,2.5-1.1,3.7-3.4,3.7h-29.2
	c-2.3,0-3.4-1.1-3.4-3.7V53.7h-48.1c-1.7,0.2-3.2-0.9-3.4-2.6c0-0.3,0-0.6,0-0.9V25.6c-0.2-1.7,0.9-3.2,2.6-3.4c0.3,0,0.6,0,0.9,0
	L278.6,22.1z"/>
<path class="st0" d="M335,92.2c2.3,0,3.5,1.1,3.5,3.7v100.5c0,2.5-1.1,3.7-3.5,3.7h-29.2c-2.3,0-3.4-1.1-3.4-3.7V95.9
	c0-2.5,1.1-3.7,3.4-3.7L335,92.2z"/>
<path class="st0" d="M409.2,177.7c0-25.1-39.3-9.3-39.3-38.5c0-14.1,8.3-21.9,23.7-21.9c8-0.1,15.9,2.5,22.3,7.4l-4.5,7.5
	c-5.3-3.6-11.5-5.5-17.8-5.6c-11.5,0-14,6-14,12.6c0,18.8,39.3,6.4,39.3,37.8c0,13.4-7.3,24.4-25.9,24.4c-8.9,0-17.6-2.7-24.9-7.9
	l4.6-7.9c5.9,3.2,11.9,6.2,20.3,6.2C405.2,191.7,409.2,185.5,409.2,177.7z"/>
<path class="st0" d="M432.8,159.2c0-15,7.5-24.4,23.5-24.4c16.3,0,23.5,9,23.5,24.4v17.6c0,15.4-7.2,24.4-23.5,24.4
	c-16,0-23.5-9.4-23.5-24.4V159.2z M442.2,176.1c0,11,3.8,16.4,14.1,16.4c10.3,0,14.1-5.4,14.1-16.4v-16.2c0-11-3.8-16.4-14.1-16.4
	c-10.3,0-14.1,5.4-14.1,16.4V176.1z"/>
<path class="st0" d="M496.7,112.3h9.4v88h-9.4V112.3z"/>
<path class="st0" d="M562.4,135.8h9.4v64.5h-7.6l-1.1-8c-2.6,2.8-9.5,8.9-18.9,8.9c-14,0-19.5-9.8-19.5-22.1v-43.4h9.4v41.2
	c0,11,4.8,15,13.3,15c6,0,11.5-3.8,14.9-6.8V135.8z"/>
<path class="st0" d="M588.2,176.8v-17.6c0-15,7.5-24.4,23.5-24.4c8.3,0,15.1,3.2,19.8,10.1l-6.2,5.6c-3.5-4.2-6.6-7-13.6-7
	c-10.3,0-14,5.4-14,16.4v16.2c0,11,3.8,16.4,14,16.4c5.3,0,9.4-1.7,13.8-6.8l6.1,5.2c-4.5,6.5-10.1,10.3-19.9,10.3
	C595.7,201.2,588.2,191.8,588.2,176.8z"/>
<path class="st0" d="M645.2,114.2h10.3v12h-10.3V114.2z M645.7,135.8h9.4v64.5h-9.4V135.8z"/>
<path class="st0" d="M672,159.2c0-15,7.5-24.4,23.5-24.4c16.3,0,23.5,9,23.5,24.4v17.6c0,15.4-7.2,24.4-23.5,24.4
	c-16,0-23.5-9.4-23.5-24.4V159.2z M681.4,176.1c0,11,3.8,16.4,14,16.4s14-5.4,14-16.4v-16.2c0-11-3.8-16.4-14-16.4s-14,5.4-14,16.4
	V176.1z"/>
<path class="st0" d="M745.4,200.3H736v-64.5h7.5l1.1,8c2.6-2.8,9.5-8.9,18.9-8.9c14,0,19.5,9.8,19.5,22.1v43.4h-9.3v-41.2
	c0-11-4.8-15-13.3-15c-6,0-11.5,3.8-14.9,6.8L745.4,200.3z"/>
<path class="st0" d="M845,171.3h-36.4v9.6c0,6.3,3.8,11.6,14.2,11.6c6-0.2,11.7-2.1,16.6-5.5l3.9,7.2c-4.7,4.2-12.9,7-20.5,7
	c-15.7,0-23.6-8.3-23.6-22.3v-19.7c0-14.9,7.5-24.4,23-24.4c15.8,0,22.8,9.1,22.8,24.4L845,171.3z M835.9,163.6v-3.6
	c0-11-3.8-16.4-13.6-16.4c-9.8,0-13.6,5.4-13.6,16.4v3.6H835.9z"/>
<path class="st0" d="M890.2,181.6c0-7.3-5.2-9-13.1-11.1c-9.4-2.5-19.2-5.3-19.2-17.4c0-12.6,8.8-18.3,20.6-18.3
	c6.4,0.1,12.7,1.8,18.3,5l-3.2,7.4c-4.7-2.5-9.8-3.9-15.1-4.1c-6.8,0-11.6,2.3-11.6,9.3c0,6.5,6.2,8.2,13.6,10.2
	c10.1,2.8,18.5,5.6,18.5,18.3c0,12.7-7.2,20.3-21.9,20.3c-7.4-0.2-14.6-2.4-20.9-6.2l3.4-7c4.3,2.1,11.7,4.9,17.5,4.9
	C887.1,192.9,890.2,188.2,890.2,181.6z"/>
</svg>
